<?xml version="1.0" encoding="UTF-8"?>
<svg xmlns="http://www.w3.org/2000/svg" xmlns:xlink="http://www.w3.org/1999/xlink" width="110px" height="110px" viewBox="0 0 110 110" version="1.1">
<g id="surface1">
<path style=" stroke:none;fill-rule:nonzero;fill:rgb(100%,59.607843%,6.666667%);fill-opacity:1;" d="M 30.9375 13.75 L 55 55 L 79.0625 13.75 Z M 30.9375 13.75 "/>
<path style=" stroke:none;fill-rule:nonzero;fill:rgb(100%,85.490196%,26.666667%);fill-opacity:1;" d="M 55 55 L 0 55 L 30.9375 13.75 Z M 55 55 "/>
<path style=" stroke:none;fill-rule:nonzero;fill:rgb(100%,31.372549%,13.72549%);fill-opacity:1;" d="M 55 55 L 110 55 L 79.0625 13.75 Z M 55 55 "/>
<path style=" stroke:none;fill-rule:nonzero;fill:rgb(0%,42.745098%,94.117647%);fill-opacity:1;" d="M 55 0 L 55 13.75 C 77.78125 13.75 96.25 32.21875 96.25 55 C 96.25 77.78125 77.78125 96.25 55 96.25 L 55 110 C 85.375 110 110 85.375 110 55 C 110 24.625 85.375 0 55 0 Z M 55 0 "/>
<path style=" stroke:none;fill-rule:nonzero;fill:rgb(0%,32.156863%,70.588235%);fill-opacity:1;" d="M 13.75 55 C 13.75 32.21875 32.21875 13.75 55 13.75 L 55 0 C 24.625 0 0 24.625 0 55 C 0 85.375 24.625 110 55 110 L 55 96.25 C 32.21875 96.25 13.75 77.78125 13.75 55 Z M 13.75 55 "/>
<path style=" stroke:none;fill-rule:nonzero;fill:rgb(100%,100%,100%);fill-opacity:1;" d="M 82.5 55 C 82.5 70.1875 70.1875 82.5 55 82.5 C 39.8125 82.5 27.5 70.1875 27.5 55 C 27.5 39.8125 39.8125 27.5 55 27.5 C 70.1875 27.5 82.5 39.8125 82.5 55 Z M 82.5 55 "/>
<path style=" stroke:none;fill-rule:nonzero;fill:rgb(0%,42.745098%,94.117647%);fill-opacity:1;" d="M 49.914062 46.03125 C 54.871094 43.222656 84.90625 38.058594 84.90625 38.058594 C 84.90625 38.058594 65.035156 61.167969 60.078125 63.976562 C 55.125 66.78125 48.832031 65.039062 46.023438 60.085938 C 43.21875 55.128906 44.957031 48.835938 49.914062 46.03125 Z M 49.914062 46.03125 "/>
</g>
</svg>
