<?xml version="1.0" encoding="UTF-8"?>
<svg xmlns="http://www.w3.org/2000/svg" xmlns:xlink="http://www.w3.org/1999/xlink" width="110px" height="110px" viewBox="0 0 110 110" version="1.1">
<g id="surface1">
<path style=" stroke:none;fill-rule:nonzero;fill:rgb(17.647059%,17.647059%,17.647059%);fill-opacity:1;" d="M 0 76.3125 L 0 6.703125 C 0 5.5 1.03125 4.46875 2.234375 4.46875 L 107.765625 4.46875 C 108.96875 4.46875 110 5.5 110 6.703125 L 110 76.3125 C 110 76.3125 -0.34375 75.96875 0 76.3125 Z M 0 76.3125 "/>
<path style=" stroke:none;fill-rule:nonzero;fill:rgb(73.72549%,73.72549%,73.72549%);fill-opacity:1;" d="M 0 76.3125 L 0 85.25 C 0 86.453125 1.03125 87.484375 2.234375 87.484375 L 107.765625 87.484375 C 108.96875 87.484375 110 86.453125 110 85.25 L 110 76.3125 C 110 76.3125 -0.34375 76.65625 0 76.3125 Z M 0 76.3125 "/>
<path style=" stroke:none;fill-rule:nonzero;fill:rgb(73.72549%,73.72549%,73.72549%);fill-opacity:1;" d="M 31.453125 103.296875 L 78.546875 103.296875 L 78.546875 105.53125 L 31.453125 105.53125 Z M 31.453125 103.296875 "/>
<path style=" stroke:none;fill-rule:nonzero;fill:rgb(17.647059%,17.647059%,17.647059%);fill-opacity:1;" d="M 70.640625 103.296875 L 39.359375 103.296875 L 41.59375 87.484375 L 68.40625 87.484375 Z M 70.640625 103.296875 "/>
<path style=" stroke:none;fill-rule:nonzero;fill:rgb(100%,100%,100%);fill-opacity:1;" d="M 4.46875 8.9375 L 105.53125 8.9375 L 105.53125 71.84375 L 4.46875 71.84375 Z M 4.46875 8.9375 "/>
<path style=" stroke:none;fill-rule:nonzero;fill:rgb(90.980392%,7.058824%,25.490196%);fill-opacity:1;" d="M 87.140625 44.859375 L 22.859375 44.859375 C 21.484375 44.859375 20.28125 43.65625 20.28125 42.28125 L 20.28125 22.859375 C 20.28125 21.484375 21.484375 20.28125 22.859375 20.28125 L 87.3125 20.28125 C 88.6875 20.28125 89.890625 21.484375 89.890625 22.859375 L 89.890625 42.453125 C 89.71875 43.65625 88.6875 44.859375 87.140625 44.859375 Z M 87.140625 44.859375 "/>
<path style=" stroke:none;fill-rule:nonzero;fill:rgb(17.647059%,17.647059%,17.647059%);fill-opacity:1;" d="M 97.769531 59.390625 L 93.515625 63.644531 L 83.671875 53.800781 L 87.925781 49.546875 Z M 97.769531 59.390625 "/>
<path style=" stroke:none;fill-rule:nonzero;fill:rgb(17.647059%,17.647059%,17.647059%);fill-opacity:1;" d="M 79.234375 58.09375 L 76.484375 42.625 L 91.953125 45.375 Z M 79.234375 58.09375 "/>
<path style=" stroke:none;fill-rule:nonzero;fill:rgb(100%,100%,100%);fill-opacity:1;" d="M 45.203125 37.8125 C 44.6875 37.984375 43.828125 38.328125 42.625 38.328125 C 39.875 38.328125 38.15625 36.4375 38.15625 33.6875 C 38.15625 30.9375 40.046875 28.875 42.96875 28.875 C 44 28.875 44.859375 29.046875 45.203125 29.390625 L 44.859375 30.59375 C 44.515625 30.421875 43.828125 30.078125 42.96875 30.078125 C 40.90625 30.078125 39.703125 31.625 39.703125 33.515625 C 39.703125 35.578125 41.078125 36.953125 42.796875 36.953125 C 43.65625 36.953125 44.34375 36.78125 44.859375 36.4375 Z M 45.203125 37.8125 "/>
<path style=" stroke:none;fill-rule:nonzero;fill:rgb(100%,100%,100%);fill-opacity:1;" d="M 47.09375 24.75 L 48.8125 24.75 L 48.8125 38.15625 L 47.09375 38.15625 Z M 47.09375 24.75 "/>
<path style=" stroke:none;fill-rule:nonzero;fill:rgb(100%,100%,100%);fill-opacity:1;" d="M 53.453125 26.46875 C 53.453125 26.984375 53.109375 27.5 52.421875 27.5 C 51.90625 27.5 51.390625 26.984375 51.390625 26.46875 C 51.390625 25.953125 51.90625 25.4375 52.421875 25.4375 C 52.9375 25.4375 53.453125 25.953125 53.453125 26.46875 Z M 51.5625 38.15625 L 51.5625 29.046875 L 53.28125 29.046875 L 53.28125 38.15625 Z M 51.5625 38.15625 "/>
<path style=" stroke:none;fill-rule:nonzero;fill:rgb(100%,100%,100%);fill-opacity:1;" d="M 62.390625 37.8125 C 61.875 37.984375 61.015625 38.328125 59.8125 38.328125 C 57.0625 38.328125 55.34375 36.4375 55.34375 33.6875 C 55.34375 30.9375 57.234375 28.875 60.15625 28.875 C 61.1875 28.875 62.046875 29.046875 62.390625 29.390625 L 62.046875 30.59375 C 61.703125 30.421875 61.015625 30.078125 60.15625 30.078125 C 58.09375 30.078125 56.890625 31.625 56.890625 33.515625 C 56.890625 35.578125 58.265625 36.953125 59.984375 36.953125 C 60.84375 36.953125 61.53125 36.78125 62.046875 36.4375 Z M 62.390625 37.8125 "/>
<path style=" stroke:none;fill-rule:nonzero;fill:rgb(100%,100%,100%);fill-opacity:1;" d="M 66 33.171875 C 66.34375 32.828125 66.515625 32.484375 66.859375 32.140625 L 69.609375 29.046875 L 71.671875 29.046875 L 68.234375 32.828125 L 72.1875 38.15625 L 70.125 38.15625 L 67.03125 33.859375 L 66.171875 34.71875 L 66.171875 38.15625 L 64.453125 38.15625 L 64.453125 24.75 L 66.171875 24.75 L 66.171875 33.171875 Z M 66 33.171875 "/>
</g>
</svg>
