<?xml version="1.0" encoding="UTF-8"?>
<svg xmlns="http://www.w3.org/2000/svg" xmlns:xlink="http://www.w3.org/1999/xlink" width="110px" height="110px" viewBox="0 0 110 110" version="1.1">
<g id="surface1">
<path style=" stroke:none;fill-rule:nonzero;fill:rgb(4.313725%,64.313725%,87.843137%);fill-opacity:1;" d="M 110 55 C 110 85.375 85.375 110 55 110 C 24.625 110 0 85.375 0 55 C 0 24.625 24.625 0 55 0 C 85.375 0 110 24.625 110 55 Z M 110 55 "/>
<path style=" stroke:none;fill-rule:nonzero;fill:rgb(20%,20%,20%);fill-opacity:1;" d="M 67.691406 38.472656 L 36.488281 53.902344 L 34.964844 50.820312 L 66.164062 35.390625 Z M 67.691406 38.472656 "/>
<path style=" stroke:none;fill-rule:nonzero;fill:rgb(20%,20%,20%);fill-opacity:1;" d="M 68.003906 72.050781 L 66.460938 75.121094 L 34.953125 59.285156 L 36.496094 56.214844 Z M 68.003906 72.050781 "/>
<path style=" stroke:none;fill-rule:nonzero;fill:rgb(100%,100%,100%);fill-opacity:1;" d="M 41.71875 55 C 41.71875 60.5 37.257812 64.960938 31.753906 64.960938 C 26.253906 64.960938 21.792969 60.5 21.792969 55 C 21.792969 49.5 26.253906 45.039062 31.753906 45.039062 C 37.257812 45.039062 41.71875 49.5 41.71875 55 Z M 41.71875 55 "/>
<path style=" stroke:none;fill-rule:nonzero;fill:rgb(100%,100%,100%);fill-opacity:1;" d="M 81.570312 34.648438 C 81.570312 40.152344 77.113281 44.613281 71.609375 44.613281 C 66.109375 44.613281 61.648438 40.152344 61.648438 34.648438 C 61.648438 29.148438 66.109375 24.6875 71.609375 24.6875 C 77.113281 24.6875 81.570312 29.148438 81.570312 34.648438 Z M 81.570312 34.648438 "/>
<path style=" stroke:none;fill-rule:nonzero;fill:rgb(100%,100%,100%);fill-opacity:1;" d="M 81.472656 75.347656 C 81.472656 80.847656 77.011719 85.308594 71.511719 85.308594 C 66.007812 85.308594 61.546875 80.847656 61.546875 75.347656 C 61.546875 69.84375 66.007812 65.382812 71.511719 65.382812 C 77.011719 65.382812 81.472656 69.84375 81.472656 75.347656 Z M 81.472656 75.347656 "/>
</g>
</svg>
